<svg width="914" height="400" fill="none" xmlns="http://www.w3.org/2000/svg">
  <path fill="#fff" d="M0 0h914v400H0z"/>
  <path d="M367.329 208.631v-3.5a9.276 9.276 0 002.12.957c.711.21 1.38.314 2.009.314.766 0 1.368-.104 1.805-.314.447-.21.67-.529.67-.957 0-.274-.1-.501-.301-.684-.2-.182-.46-.342-.779-.478a8.295 8.295 0 00-1.025-.369c-.374-.11-.734-.233-1.081-.37a11.162 11.162 0 01-1.476-.669 4.595 4.595 0 01-1.067-.848 3.468 3.468 0 01-.656-1.108c-.146-.419-.219-.916-.219-1.49 0-.784.169-1.458.506-2.023a4.209 4.209 0 011.368-1.381 6.1 6.1 0 011.955-.793c.738-.173 1.503-.26 2.296-.26.62 0 1.249.05 1.887.151a13.28 13.28 0 011.887.41v3.336a6.631 6.631 0 00-1.764-.711 7.14 7.14 0 00-1.832-.246c-.282 0-.551.027-.806.082a2.307 2.307 0 00-.657.218 1.151 1.151 0 00-.451.37.82.82 0 00-.164.505c0 .256.082.474.246.657.164.182.378.341.643.478.264.128.556.246.875.356.328.1.651.205.97.314.575.201 1.094.419 1.559.656.465.237.861.515 1.189.834.338.319.593.693.766 1.121.182.429.274.939.274 1.532 0 .829-.183 1.54-.547 2.133a4.33 4.33 0 01-1.436 1.435c-.592.365-1.28.629-2.064.793a11.08 11.08 0 01-2.42.26c-1.541 0-2.967-.237-4.28-.711zm14.876-15.846c-.729 0-1.326-.214-1.791-.642a2.114 2.114 0 01-.697-1.6c0-.647.232-1.176.697-1.586.465-.41 1.062-.615 1.791-.615.738 0 1.335.205 1.791.615.465.41.697.939.697 1.586 0 .656-.232 1.194-.697 1.613-.456.42-1.053.629-1.791.629zM384.338 209h-4.32v-14h4.32v14zm25.307 0h-4.307v-7.984c0-2.033-.747-3.049-2.242-3.049-.711 0-1.29.305-1.736.916-.447.61-.67 1.372-.67 2.283V209h-4.32v-8.066c0-1.978-.734-2.967-2.202-2.967-.738 0-1.33.291-1.777.875-.437.583-.656 1.376-.656 2.379V209h-4.32v-14h4.32v2.188h.055c.446-.748 1.071-1.354 1.873-1.819a5.163 5.163 0 012.652-.711c1.978 0 3.331.871 4.06 2.612 1.067-1.741 2.635-2.612 4.704-2.612 3.044 0 4.566 1.878 4.566 5.633V209zm7.233-1.627h-.055v8.066h-4.32V195h4.32v2.105h.055c1.066-1.631 2.566-2.447 4.498-2.447 1.814 0 3.213.625 4.197 1.873.994 1.24 1.491 2.931 1.491 5.073 0 2.333-.579 4.206-1.737 5.619-1.148 1.412-2.679 2.119-4.594 2.119-1.686 0-2.971-.656-3.855-1.969zm-.123-5.742v1.121c0 .966.255 1.755.766 2.365.51.611 1.18.916 2.009.916.985 0 1.746-.378 2.284-1.135.546-.765.82-1.845.82-3.24 0-2.461-.957-3.691-2.871-3.691-.884 0-1.609.337-2.174 1.012-.556.665-.834 1.549-.834 2.652zM433.627 209h-4.321v-20.727h4.321V209zm15.654-5.77h-9.132c.145 2.033 1.426 3.049 3.841 3.049 1.541 0 2.894-.364 4.061-1.093v3.117c-1.294.692-2.976 1.039-5.045 1.039-2.26 0-4.015-.625-5.264-1.873-1.248-1.258-1.873-3.008-1.873-5.25 0-2.324.675-4.166 2.024-5.524 1.349-1.358 3.008-2.037 4.976-2.037 2.042 0 3.619.606 4.731 1.819 1.121 1.212 1.681 2.857 1.681 4.935v1.818zm-4.005-2.652c0-2.005-.812-3.008-2.434-3.008-.693 0-1.294.287-1.805.862-.501.574-.806 1.289-.916 2.146h5.155zM464.622 195l-5.688 15.121c-1.367 3.637-3.427 5.455-6.179 5.455-1.049 0-1.91-.118-2.584-.355v-3.446a3.624 3.624 0 001.873.506c1.112 0 1.886-.524 2.324-1.572l.738-1.736L449.419 195h4.785l2.611 8.518c.164.528.292 1.153.383 1.873h.055c.082-.529.232-1.144.451-1.846l2.639-8.545h4.279zm12.825 14h-4.088v-2.01h-.055c-.939 1.568-2.329 2.352-4.17 2.352-1.358 0-2.429-.383-3.213-1.149-.775-.774-1.162-1.804-1.162-3.089 0-2.717 1.609-4.284 4.826-4.704l3.801-.505c0-1.532-.829-2.297-2.488-2.297-1.668 0-3.254.496-4.758 1.49v-3.254c.602-.31 1.422-.583 2.461-.82 1.048-.237 2.001-.356 2.857-.356 3.993 0 5.989 1.992 5.989 5.975V209zm-4.061-5.688v-.943l-2.543.328c-1.404.183-2.105.816-2.105 1.901 0 .492.168.897.505 1.216.347.31.812.465 1.395.465.811 0 1.472-.278 1.982-.834.511-.565.766-1.276.766-2.133zM502.535 209h-4.307v-7.984c0-2.033-.747-3.049-2.242-3.049-.711 0-1.29.305-1.736.916-.447.61-.67 1.372-.67 2.283V209h-4.32v-8.066c0-1.978-.734-2.967-2.202-2.967-.738 0-1.33.291-1.777.875-.437.583-.656 1.376-.656 2.379V209h-4.32v-14h4.32v2.188h.055c.446-.748 1.07-1.354 1.873-1.819a5.163 5.163 0 012.652-.711c1.978 0 3.331.871 4.06 2.612 1.067-1.741 2.635-2.612 4.704-2.612 3.044 0 4.566 1.878 4.566 5.633V209zm7.178 0h-4.32v-20.727h4.32V209z" fill="#333"/>
  <path d="M514.034 209.273c-.364 0-.674-.127-.93-.382a1.267 1.267 0 01-.382-.93c0-.374.123-.688.369-.943.255-.256.569-.383.943-.383.182 0 .351.036.506.109.164.064.305.155.424.274a1.297 1.297 0 01.396.943c0 .182-.036.355-.109.519a1.467 1.467 0 01-.287.411c-.119.118-.26.209-.424.273a1.173 1.173 0 01-.506.109zm16.352-1.353c0 2.598-.592 4.521-1.777 5.769-1.176 1.258-2.994 1.887-5.455 1.887a9.602 9.602 0 01-4.348-1.025v-1.778c1.522.848 2.972 1.272 4.348 1.272 3.655 0 5.482-1.932 5.482-5.797v-1.682h-.054c-1.076 1.842-2.717 2.762-4.922 2.762-.866 0-1.659-.159-2.379-.478a5.133 5.133 0 01-1.832-1.381c-.511-.602-.907-1.331-1.19-2.188-.282-.866-.424-1.841-.424-2.926 0-1.148.151-2.192.452-3.13.3-.948.729-1.76 1.285-2.434a5.69 5.69 0 012.01-1.559c.793-.373 1.681-.56 2.666-.56 1.977 0 3.422.802 4.334 2.406h.054V195h1.75v12.92zm-1.75-7.424c0-.583-.105-1.135-.314-1.654a4.295 4.295 0 00-.875-1.367 4.12 4.12 0 00-1.34-.93 3.977 3.977 0 00-1.695-.356c-.73 0-1.39.142-1.983.424a4.375 4.375 0 00-1.504 1.203c-.41.52-.729 1.153-.957 1.901-.218.738-.328 1.572-.328 2.502 0 .857.105 1.631.315 2.324.209.693.505 1.281.888 1.764a4 4 0 001.381 1.121 4.128 4.128 0 001.818.396c.693 0 1.322-.123 1.887-.369a4.383 4.383 0 001.449-1.039c.401-.447.711-.966.93-1.559a5.626 5.626 0 00.328-1.941v-2.42zm11.431 8.832c-1.04 0-1.974-.173-2.803-.519a6.044 6.044 0 01-2.106-1.463 6.55 6.55 0 01-1.34-2.284c-.309-.884-.464-1.863-.464-2.939 0-1.167.164-2.21.492-3.131.328-.92.793-1.7 1.394-2.338a6.012 6.012 0 012.202-1.476c.856-.338 1.813-.506 2.871-.506 1.011 0 1.923.168 2.734.506a5.507 5.507 0 012.064 1.435c.566.629.998 1.395 1.299 2.297.301.902.451 1.928.451 3.076 0 1.094-.159 2.092-.478 2.994a6.671 6.671 0 01-1.34 2.311 5.964 5.964 0 01-2.133 1.504c-.838.355-1.786.533-2.843.533zm.136-13.139c-.765 0-1.458.133-2.078.397a4.379 4.379 0 00-1.599 1.162c-.438.501-.775 1.121-1.012 1.859-.237.73-.356 1.559-.356 2.489 0 .875.119 1.663.356 2.365a5.4 5.4 0 00.998 1.805c.437.501.966.888 1.586 1.162.62.264 1.312.396 2.078.396.784 0 1.476-.127 2.078-.383a4.196 4.196 0 001.531-1.134c.42-.502.734-1.112.944-1.832.218-.72.328-1.541.328-2.461 0-1.887-.42-3.327-1.258-4.321-.839-1.002-2.037-1.504-3.596-1.504z" fill="#555"/>
</svg>
